<svg id="SvgjsSvg1001" width="288" height="288" xmlns="http://www.w3.org/2000/svg" version="1.1" xmlns:xlink="http://www.w3.org/1999/xlink" xmlns:svgjs="http://svgjs.com/svgjs"><defs id="SvgjsDefs1002"></defs><g id="SvgjsG1008"><svg xmlns="http://www.w3.org/2000/svg" data-name="Layer 3" viewBox="0 0 64 64" width="288" height="288"><path fill="#7c4923" d="M42.868,52.171A21.147,21.147,0,0,0,56.955,38.842l1.277-3.65A13.678,13.678,0,0,0,59,30.675h0A13.676,13.676,0,0,0,45.324,17H41.233L41,23h4.324a7.674,7.674,0,0,1,7.245,10.21l-1.277,3.65A15.16,15.16,0,0,1,43,45.758L37,48Z" class="color7c4923 svgShape"></path><path fill="#7c4923" d="M41,12l2,43a7,7,0,0,1-7,7H12a7,7,0,0,1-7-7L7,12Z" class="color7c4923 svgShape"></path><path fill="#985d2c" d="M11.814,12,10,51a7,7,0,0,0,7,7H41a7.015,7.015,0,0,0,1.384-.138A6.977,6.977,0,0,0,43,55L41,12Z" class="color985d2c svgShape"></path><polygon fill="#b56e35" points="42.488 44 41.744 28 11.07 28 10.326 44 42.488 44" class="colorb56e35 svgShape"></polygon><rect width="36" height="6" x="6" y="20" fill="#cdd4e4" class="colorcdd4e4 svgShape"></rect><polygon fill="#dce0e8" points="11.442 20 11.163 26 42 26 42 20 11.442 20" class="colordce0e8 svgShape"></polygon><rect width="38" height="6" x="5" y="44" fill="#cdd4e4" class="colorcdd4e4 svgShape"></rect><rect width="2" height="18" x="13" y="26" fill="#7c4923" class="color7c4923 svgShape"></rect><rect width="2" height="10.946" x="23" y="33.054" fill="#7c4923" class="color7c4923 svgShape"></rect><rect width="2" height="8" x="33" y="12" fill="#7c4923" class="color7c4923 svgShape"></rect><rect width="2" height="18" x="33" y="26" fill="#7c4923" class="color7c4923 svgShape"></rect><polygon fill="#dce0e8" points="10.326 44 10.047 50 43 50 43 44 10.326 44" class="colordce0e8 svgShape"></polygon><polygon fill="#b56e35" points="41 12 11.814 12 11.442 20 41.372 20 41 12" class="colorb56e35 svgShape"></polygon><path fill="#b56e35" d="M10.08,52A6.994,6.994,0,0,0,17,58H41a7.015,7.015,0,0,0,1.384-.138,7,7,0,0,0,.562-2.027L42.767,52Z" class="colorb56e35 svgShape"></path><rect width="2" height="12" x="13" y="50" fill="#7c4923" class="color7c4923 svgShape"></rect><rect width="2" height="12" x="23" y="50" fill="#7c4923" class="color7c4923 svgShape"></rect><rect width="2" height="12" x="33" y="50" fill="#7c4923" class="color7c4923 svgShape"></rect><path fill="#fec153" d="M27,12V24a2,2,0,0,1-2,2h0a2,2,0,0,1-2-2h0v5a2,2,0,0,1-2,2h0a2,2,0,0,1-2-2V19a2,2,0,0,0-2-2h0a2,2,0,0,0-2,2v1a2,2,0,0,1-2,2h0a2,2,0,0,1-2-2V12H8a5.981,5.981,0,0,1,7.578-5.783A7,7,0,0,1,26.957,4.058,4.976,4.976,0,0,1,35,8c0,.05-.013.1-.015.146A3.956,3.956,0,0,1,36,8a4,4,0,0,1,4,4Z" class="colorfec153 svgShape"></path><path fill="#fed055" d="M13,16.319V22a2,2,0,0,0,2-2V19a2,2,0,0,1,4,0V29a2,2,0,0,0,4,0V24a2,2,0,0,0,4,0V12H40a4,4,0,0,0-4-4,3.956,3.956,0,0,0-1.015.146c0-.05.015-.1.015-.146a4.988,4.988,0,0,0-.1-1H22.319A9.319,9.319,0,0,0,13,16.319Z" class="colorfed055 svgShape"></path><path fill="#985d2c" d="M48.816,17.466A13.677,13.677,0,0,0,45.324,17H42.233l.093,2H43v4h2.057a8.023,8.023,0,0,1,5.334,1.908,7.676,7.676,0,0,1,2.178,8.3l-1.277,3.65A15.131,15.131,0,0,1,44,45.263v.593a1.876,1.876,0,0,0,3.042,1.464,21.077,21.077,0,0,0,6.913-9.649l1.277-3.649A13.684,13.684,0,0,0,56,29.5h0A13.671,13.671,0,0,0,48.816,17.466Z" class="color985d2c svgShape"></path></svg></g></svg>